<svg width="current" height="current" viewBox="0 0 32 32" fill="none" xmlns="http://www.w3.org/2000/svg">
<path d="M29 3C30.1046 3 31 3.89543 31 5V6.5C31 7.05228 30.5523 7.5 30 7.5C29.4477 7.5 29 7.05228 29 6.5V5H3V22H15.5C16.0523 22 16.5 22.4477 16.5 23V30H12C11.4477 30 11 29.5523 11 29C11 28.4477 11.4477 28 12 28H13V24H3C1.89543 24 1 23.1046 1 22V5C1 3.89543 1.89543 3 3 3H29Z" fill="currentColor"/>
<path d="M20 10.5V28H29V10.5H20ZM31 28C31 29.1046 30.1046 30 29 30H20C18.8954 30 18 29.1046 18 28V10.5C18 9.39543 18.8954 8.5 20 8.5H29C30.1046 8.5 31 9.39543 31 10.5V28Z" fill="currentColor"/>
<rect x="22" y="25" width="5" height="2" rx="1" fill="currentColor"/>
</svg>
